<?xml version="1.0" standalone="no"?>
<!DOCTYPE svg PUBLIC "-//W3C//DTD SVG 20010904//EN"
 "http://www.w3.org/TR/2001/REC-SVG-20010904/DTD/svg10.dtd">
<svg version="1.0" xmlns="http://www.w3.org/2000/svg"
 width="647.000000pt" height="647.000000pt" viewBox="0 0 647.000000 647.000000"
 preserveAspectRatio="xMidYMid meet">
<metadata>
Created by potrace 1.11, written by Peter Selinger 2001-2013
</metadata>
<g transform="translate(0.000000,647.000000) scale(0.100000,-0.100000)"
fill="#000000" stroke="none">
<path d="M4185 6415 c-74 -26 -188 -177 -273 -365 -37 -82 -73 -115 -191 -176
-151 -78 -243 -176 -329 -349 -77 -156 -112 -304 -108 -455 l2 -95 -54 -83
c-61 -94 -206 -244 -298 -311 -115 -82 -281 -160 -376 -176 -197 -34 -414
-217 -610 -516 -99 -151 -109 -168 -235 -419 -93 -183 -112 -230 -131 -315
-35 -160 -45 -273 -44 -500 0 -136 4 -215 16 -405 7 -100 35 -339 47 -395 26
-125 29 -196 14 -325 -11 -92 -4 -70 -52 -167 -48 -97 -87 -209 -110 -323 -3
-14 -5 -72 -6 -130 -1 -303 179 -559 502 -714 39 -18 80 -37 93 -41 13 -4 25
-8 28 -10 3 -1 12 -5 20 -8 20 -9 206 -54 250 -61 101 -17 172 -21 345 -20
105 0 213 4 240 8 28 4 66 9 85 12 19 2 46 6 60 9 14 2 36 7 50 9 93 16 367
92 385 106 6 4 23 10 40 14 45 11 174 73 212 102 18 14 33 34 33 45 0 66 -236
69 -570 8 -173 -31 -556 -34 -720 -5 -14 3 -43 7 -65 11 -71 10 -224 54 -300
86 -158 65 -260 151 -316 264 -28 57 -32 76 -32 148 0 52 6 103 18 139 16 54
20 58 44 53 107 -21 191 -26 471 -30 151 -3 356 -7 455 -10 424 -15 774 -6
910 21 94 20 116 41 129 132 19 132 -121 208 -392 212 l-33 0 38 32 c21 18 47
44 58 57 37 44 86 143 98 198 l13 56 43 -99 c104 -239 178 -362 265 -441 68
-62 122 -90 202 -104 108 -19 284 24 319 78 20 29 22 81 6 112 -10 18 -9 23
11 31 48 20 76 57 85 111 10 68 -32 93 -196 115 -45 6 -100 33 -111 54 -5 10
-12 73 -15 141 -6 124 -6 932 -1 1064 8 181 112 408 293 640 133 169 183 363
178 686 -2 92 -5 172 -8 176 -3 4 -8 42 -12 83 -4 41 -9 78 -11 81 -1 3 -6 28
-9 56 -3 27 -8 60 -10 74 -3 13 -7 42 -10 64 -3 22 -8 58 -12 80 -10 58 -10
57 0 87 13 40 55 79 143 133 138 85 178 120 228 198 67 105 89 232 49 285 -11
15 -42 35 -69 45 -113 41 -160 79 -229 182 -41 63 -113 118 -170 131 -32 7
-136 37 -173 50 -28 11 -44 23 -47 37 -2 12 -6 94 -9 182 -2 88 -7 167 -10
175 -3 8 -8 33 -11 55 -7 51 -34 105 -60 121 -16 10 -28 10 -60 -1z"/>
</g>
</svg>
